<?xml version="1.0" encoding="UTF-8" standalone="no"?>
<svg width="20px" height="23px" viewBox="0 0 20 23" version="1.1" xmlns="http://www.w3.org/2000/svg" xmlns:xlink="http://www.w3.org/1999/xlink">
    <!-- Generator: Sketch 47.1 (45422) - http://www.bohemiancoding.com/sketch -->
    <title>Shape</title>
    <desc>Created with Sketch.</desc>
    <defs></defs>
    <g id="Page-1" stroke="none" stroke-width="1" fill="none" fill-rule="evenodd">
        <path d="M17.9970086,9.41689694 L17.9970086,15.0408632 C17.9970086,16.1778503 19.1968092,16.7890612 19.1968092,17.8549269 C19.1968092,18.6011958 18.5974145,19.1968092 17.8604644,19.1968092 L1.33634475,19.1968092 C0.597428788,19.1968092 0.001092814,18.596028 0,17.8549269 C0.001092814,16.6481502 1.19980057,16.1464494 1.19980057,15.0408632 L1.19980057,9.41689694 C1.19980057,3.59940172 4.88538655,0 9.59840458,0 C14.3114226,0 18.1320786,3.59940172 17.9970086,9.41689694 Z M6.94565927,20.9156764 C6.93670236,20.8765983 6.93218109,20.8366347 6.93218109,20.7965433 C6.93218109,20.5020404 7.17092285,20.2632986 7.46542579,20.2632986 L11.7420721,20.2632986 C11.7814674,20.2632986 11.8207413,20.2676642 11.8591749,20.2763156 C12.1464887,20.3409897 12.3269739,20.6263323 12.2622998,20.913646 C12.2586092,20.9300413 12.2548288,20.9456079 12.2509585,20.9603458 C11.9427021,22.1341671 10.8743749,23 9.60382176,23 C8.33022631,23 7.25982652,22.1300158 6.95448378,20.9519087 C6.951487,20.9403462 6.94854551,20.9282687 6.94565927,20.9156764 Z" id="Shape" fill="#000000" fill-rule="nonzero"></path>
    </g>
</svg>
