<?xml version="1.0" encoding="UTF-8" standalone="no"?>
<svg width="19px" height="23px" viewBox="0 0 19 23" version="1.1" xmlns="http://www.w3.org/2000/svg" xmlns:xlink="http://www.w3.org/1999/xlink">
    <!-- Generator: Sketch 47.1 (45422) - http://www.bohemiancoding.com/sketch -->
    <title>Shape</title>
    <desc>Created with Sketch.</desc>
    <defs></defs>
    <g id="Page-1" stroke="none" stroke-width="1" fill="none" fill-rule="evenodd">
        <g id="Global-Nav-bar" transform="translate(-45.000000, -13.000000)" fill-rule="nonzero" fill="#000000">
            <g id="items" transform="translate(39.000000, 11.000000)">
                <g id="places" transform="translate(0.000000, 2.000000)">
                    <g id="icon:-pin" transform="translate(6.000000, 0.000000)">
                        <path d="M17.895936,5.20838697 C19.2995729,7.98382094 19.3506143,11.09027 17.9214567,13.6874651 C16.7730264,15.8008689 12.3579503,19.6579543 10.3928586,22.0769105 C9.88244515,22.6880153 8.96370098,22.6880153 8.47880822,22.0769105 C6.51371652,19.6579543 2.04759901,15.8008689 0.975730809,13.6874651 C-1.29560895,9.23149309 0.516358723,3.34961008 5.1866416,1.00704196 C9.85692448,-1.33552616 15.5480342,0.548713415 17.895936,5.20838697 Z M9.46475638,14.4308076 C11.9848775,14.4308076 14.0278393,12.3878458 14.0278393,9.86772466 C14.0278393,7.34760354 11.9848775,5.30464172 9.46475638,5.30464172 C6.94463527,5.30464172 4.90167345,7.34760354 4.90167345,9.86772466 C4.90167345,12.3878458 6.94463527,14.4308076 9.46475638,14.4308076 Z" id="Shape"></path>
                    </g>
                </g>
            </g>
        </g>
    </g>
</svg>
