<?xml version="1.0" encoding="UTF-8" standalone="no"?>
<svg width="21px" height="20px" viewBox="0 0 21 20" version="1.1" xmlns="http://www.w3.org/2000/svg" xmlns:xlink="http://www.w3.org/1999/xlink">
    <!-- Generator: Sketch 47.1 (45422) - http://www.bohemiancoding.com/sketch -->
    <title>icon: current location</title>
    <desc>Created with Sketch.</desc>
    <defs></defs>
    <g id="Page-1" stroke="none" stroke-width="1" fill="none" fill-rule="evenodd">
        <g id="icon:-current-location" fill-rule="nonzero" fill="#000000">
            <path d="M10.2558594,0 C4.74185938,0 0.255859375,4.486 0.255859375,10 C0.255859375,15.5138 4.74185938,20 10.2558594,20 C15.7698594,20 20.2558594,15.5138 20.2558594,10 C20.2558594,4.486 15.7698594,0 10.2558594,0 Z M11.0622594,18.3474 L11.0622594,15.6452 L9.44945938,15.6452 L9.44945938,18.3476 C5.46725938,17.9658 2.29005938,14.7886 1.90845938,10.8064 L4.61085938,10.8064 L4.61085938,9.1936 L1.90845938,9.1936 C2.29025938,5.2114 5.46725938,2.0344 9.44945938,1.6526 L9.44945938,4.3548 L11.0622594,4.3548 L11.0622594,1.6526 C15.0444594,2.0342 18.2216594,5.2112 18.6032594,9.1936 L15.9010594,9.1936 L15.9010594,10.8064 L18.6034594,10.8064 C18.2216594,14.7886 15.0444594,17.9658 11.0622594,18.3474 Z" id="Shape"></path>
        </g>
    </g>
</svg>